<svg width="22" height="19" viewBox="0 0 22 19" fill="none" xmlns="http://www.w3.org/2000/svg">
<path d="M12.0005 0V1H19.0005V3H12.0005V17H16.0005V19H6.0005V17H10.0005V3H3.0005V1H10.0005V0H12.0005ZM4.0005 4.343L6.8285 7.172C7.38789 7.73142 7.76883 8.44415 7.92316 9.22007C8.07748 9.99599 7.99826 10.8002 7.6955 11.5311C7.39274 12.262 6.88005 12.8867 6.22226 13.3262C5.56447 13.7658 4.79112 14.0004 4 14.0004C3.20889 14.0004 2.43553 13.7658 1.77774 13.3262C1.11995 12.8867 0.60726 12.262 0.304503 11.5311C0.0017468 10.8002 -0.0774786 9.99599 0.0768456 9.22007C0.23117 8.44415 0.612112 7.73142 1.1715 7.172L4.0005 4.343ZM18.0005 4.343L20.8285 7.172C21.3879 7.73142 21.7688 8.44415 21.9232 9.22007C22.0775 9.99599 21.9983 10.8002 21.6955 11.5311C21.3927 12.262 20.8801 12.8867 20.2223 13.3262C19.5645 13.7658 18.7911 14.0004 18 14.0004C17.2089 14.0004 16.4355 13.7658 15.7777 13.3262C15.1199 12.8867 14.6073 12.262 14.3045 11.5311C14.0017 10.8002 13.9225 9.99599 14.0768 9.22007C14.2312 8.44415 14.6121 7.73142 15.1715 7.172L18.0005 4.343ZM18.0005 7.172L16.5865 8.586C16.2114 8.96099 16.0006 9.46961 16.0005 10L20.0005 10.001C20.0005 9.461 19.7885 8.96 19.4145 8.586L18.0005 7.172ZM4.0005 7.172L2.5865 8.586C2.2114 8.96099 2.00061 9.46961 2.0005 10L6.0005 10.001C6.0005 9.461 5.7885 8.96 5.4145 8.586L4.0005 7.172Z" fill="#21262C"/>
</svg>
